<svg width="489" height="489" viewBox="0 0 489 489" fill="none" xmlns="http://www.w3.org/2000/svg">
<path d="M280.136 10.0854C269.39 3.57401 257.065 0.131348 244.5 0.131348C231.935 0.131348 219.61 3.57401 208.864 10.0854L48.411 107.335C38.2998 113.462 29.939 122.092 24.1357 132.392C18.3325 142.693 15.2828 154.315 15.2812 166.138V322.862C15.2828 334.685 18.3325 346.307 24.1357 356.607C29.939 366.908 38.2998 375.538 48.411 381.664L208.864 478.914C219.61 485.426 231.935 488.868 244.5 488.868C257.065 488.868 269.39 485.426 280.136 478.914L440.589 381.664C450.7 375.538 459.061 366.908 464.864 356.607C470.668 346.307 473.717 334.685 473.719 322.862V166.138C473.717 154.315 470.668 142.693 464.864 132.392C459.061 122.092 450.7 113.462 440.589 107.335L280.136 10.0854Z" fill="#1F1F1F" fill-opacity="0.55"/>
<path d="M138.725 126.725H328.532V245.353H352.257V103H115V387.71H245.491V363.985H138.725V126.725Z" fill="url(#paint0_linear_599_103)"/>
<path d="M162.447 150.45H304.803V174.175H162.447V150.45ZM162.447 197.903H281.075V221.629H162.447V197.903ZM162.447 245.354H233.625V269.079H162.447V245.354ZM316.666 256.334L257.353 288.956V354.202L316.669 386.825L375.982 354.202V288.956L316.666 256.334ZM352.257 340.173L316.669 359.746L281.082 340.173V302.986L316.669 283.413L352.257 302.986V340.173Z" fill="url(#paint1_linear_599_103)"/>
<path d="M304.804 321.579C304.804 324.725 306.054 327.742 308.278 329.967C310.503 332.192 313.52 333.441 316.666 333.441C319.812 333.441 322.83 332.192 325.054 329.967C327.279 327.742 328.529 324.725 328.529 321.579C328.529 318.433 327.279 315.415 325.054 313.191C322.83 310.966 319.812 309.716 316.666 309.716C313.52 309.716 310.503 310.966 308.278 313.191C306.054 315.415 304.804 318.433 304.804 321.579Z" fill="#BF0D0D"/>
<defs>
<linearGradient id="paint0_linear_599_103" x1="233.628" y1="103" x2="233.628" y2="387.71" gradientUnits="userSpaceOnUse">
<stop stop-color="#7AEEE5"/>
<stop offset="1" stop-color="#7AEEE5" stop-opacity="0"/>
</linearGradient>
<linearGradient id="paint1_linear_599_103" x1="269.214" y1="150.45" x2="269.214" y2="386.825" gradientUnits="userSpaceOnUse">
<stop stop-color="#7AEEE5"/>
<stop offset="1" stop-color="#7AEEE5" stop-opacity="0"/>
</linearGradient>
</defs>
</svg>
