<svg width="421" height="426" viewBox="0 0 421 426" fill="none" xmlns="http://www.w3.org/2000/svg">
<path opacity="0.5" d="M346.455 357.394V102.728L138 19V273.904L346.455 357.394Z" fill="url(#paint0_linear_355_700)"/>
<path opacity="0.6" d="M326.455 381.394V126.728L118 43V297.904L326.455 381.394Z" fill="url(#paint1_linear_355_700)"/>
<path d="M306.455 405.394V150.728L97.9995 67V321.904L306.455 405.394Z" fill="url(#paint2_linear_355_700)"/>
<g filter="url(#filter0_d_355_700)">
<path d="M234 206C243.871 176.814 247.372 160.387 249.5 131L264 137.5C262.224 166.712 258.001 183.145 248 212.5L245.5 204L240.5 209L239 202L234 206Z" fill="url(#paint3_linear_355_700)"/>
</g>
<g filter="url(#filter1_d_355_700)">
<path d="M262.633 218.606C266.204 188.004 266.204 171.208 262.16 142.023L277.696 145.357C282.048 174.298 281.343 191.25 277.681 222.045L273.464 214.253L269.616 220.185L266.69 213.652L262.633 218.606Z" fill="url(#paint4_linear_355_700)"/>
</g>
<g filter="url(#filter2_d_355_700)">
<path d="M286 147C286 163.568 274.5 171.5 264 169C253.5 166.5 242 149.568 242 133C242 116.431 252.5 105 264 109C275.5 113 286 130.431 286 147Z" fill="#7AEEE5"/>
</g>
<defs>
<filter id="filter0_d_355_700" x="230" y="131" width="38" height="89.5" filterUnits="userSpaceOnUse" color-interpolation-filters="sRGB">
<feFlood flood-opacity="0" result="BackgroundImageFix"/>
<feColorMatrix in="SourceAlpha" type="matrix" values="0 0 0 0 0 0 0 0 0 0 0 0 0 0 0 0 0 0 127 0" result="hardAlpha"/>
<feOffset dy="4"/>
<feGaussianBlur stdDeviation="2"/>
<feComposite in2="hardAlpha" operator="out"/>
<feColorMatrix type="matrix" values="0 0 0 0 0 0 0 0 0 0 0 0 0 0 0 0 0 0 0.25 0"/>
<feBlend mode="normal" in2="BackgroundImageFix" result="effect1_dropShadow_355_700"/>
<feBlend mode="normal" in="SourceGraphic" in2="effect1_dropShadow_355_700" result="shape"/>
</filter>
<filter id="filter1_d_355_700" x="258.159" y="142.022" width="26.541" height="88.0225" filterUnits="userSpaceOnUse" color-interpolation-filters="sRGB">
<feFlood flood-opacity="0" result="BackgroundImageFix"/>
<feColorMatrix in="SourceAlpha" type="matrix" values="0 0 0 0 0 0 0 0 0 0 0 0 0 0 0 0 0 0 127 0" result="hardAlpha"/>
<feOffset dy="4"/>
<feGaussianBlur stdDeviation="2"/>
<feComposite in2="hardAlpha" operator="out"/>
<feColorMatrix type="matrix" values="0 0 0 0 0 0 0 0 0 0 0 0 0 0 0 0 0 0 0.25 0"/>
<feBlend mode="normal" in2="BackgroundImageFix" result="effect1_dropShadow_355_700"/>
<feBlend mode="normal" in="SourceGraphic" in2="effect1_dropShadow_355_700" result="shape"/>
</filter>
<filter id="filter2_d_355_700" x="242" y="108.198" width="52" height="69.2544" filterUnits="userSpaceOnUse" color-interpolation-filters="sRGB">
<feFlood flood-opacity="0" result="BackgroundImageFix"/>
<feColorMatrix in="SourceAlpha" type="matrix" values="0 0 0 0 0 0 0 0 0 0 0 0 0 0 0 0 0 0 127 0" result="hardAlpha"/>
<feOffset dx="4" dy="4"/>
<feGaussianBlur stdDeviation="2"/>
<feComposite in2="hardAlpha" operator="out"/>
<feColorMatrix type="matrix" values="0 0 0 0 0 0 0 0 0 0 0 0 0 0 0 0 0 0 0.25 0"/>
<feBlend mode="normal" in2="BackgroundImageFix" result="effect1_dropShadow_355_700"/>
<feBlend mode="normal" in="SourceGraphic" in2="effect1_dropShadow_355_700" result="shape"/>
</filter>
<linearGradient id="paint0_linear_355_700" x1="388.351" y1="187.723" x2="137.999" y2="187.721" gradientUnits="userSpaceOnUse">
<stop stop-color="#7AEEE5" stop-opacity="0"/>
<stop offset="1" stop-color="#7AEEE5"/>
</linearGradient>
<linearGradient id="paint1_linear_355_700" x1="368.351" y1="211.723" x2="117.999" y2="211.721" gradientUnits="userSpaceOnUse">
<stop stop-color="#7AEEE5" stop-opacity="0"/>
<stop offset="1" stop-color="#7AEEE5"/>
</linearGradient>
<linearGradient id="paint2_linear_355_700" x1="348.351" y1="235.723" x2="97.9988" y2="235.721" gradientUnits="userSpaceOnUse">
<stop stop-color="#7AEEE5" stop-opacity="0"/>
<stop offset="1" stop-color="#7AEEE5"/>
</linearGradient>
<linearGradient id="paint3_linear_355_700" x1="249" y1="212.5" x2="249" y2="131" gradientUnits="userSpaceOnUse">
<stop stop-color="#7AEEE5"/>
<stop offset="1" stop-color="#468883"/>
</linearGradient>
<linearGradient id="paint4_linear_355_700" x1="278.659" y1="221.837" x2="261.671" y2="142.127" gradientUnits="userSpaceOnUse">
<stop stop-color="#7AEEE5"/>
<stop offset="1" stop-color="#468883"/>
</linearGradient>
</defs>
</svg>
