<?xml version="1.0" encoding="utf-8"?>

<!DOCTYPE svg PUBLIC "-//W3C//DTD SVG 1.1//EN" "http://www.w3.org/Graphics/SVG/1.1/DTD/svg11.dtd">
<!-- Uploaded to: SVG Repo, www.svgrepo.com, Generator: SVG Repo Mixer Tools -->
<svg version="1.1" id="_x32_" xmlns="http://www.w3.org/2000/svg" xmlns:xlink="http://www.w3.org/1999/xlink"
	 viewBox="0 0 512 400"  xml:space="preserve">
<style type="text/css">
	.st0{fill:#FFFFFF;}
</style>
<g>
	<path class="st0" d="M190.082,69.425c22.226,0,28.032-16.387,33.497-16.387h9.555c8.214,0,12.491,8.994,21.917,14.996v37.937
		h-16.672c-7.766,0-14.068,6.303-14.068,14.078v30.853h99.564v-30.853c0-7.774-6.302-14.078-14.077-14.078h-16.655V68.034
		c9.425-6.002,13.711-14.996,21.925-14.996h9.564c5.456,0,11.263,16.387,33.488,16.387c16.972,0,30.732-13.76,30.732-30.733
		c0-16.996-13.76-30.74-30.732-30.74c-22.225,0-28.032,16.378-33.488,16.378h-9.564c-12.304,0-15.728-20.225-40.97-20.225
		c-25.243,0-28.658,20.225-40.963,20.225h-9.555c-5.465,0-11.271-16.378-33.497-16.378c-16.972,0-30.732,13.744-30.732,30.74
		C159.35,55.664,173.109,69.425,190.082,69.425z"/>
	<path class="st0" d="M120.852,333.489L26.931,307.4c-7.49-2.082-15.248,2.309-17.329,9.791l-9.084,32.684
		c-2.082,7.49,2.301,15.248,9.799,17.33l93.912,26.096c7.49,2.082,15.248-2.301,17.338-9.79l9.075-32.685
		C132.733,343.337,128.342,335.579,120.852,333.489z"/>
	<path class="st0" d="M496.743,141.915l-26.788-9.449c-4.928-1.749-10.304-1.749-15.232,0l-26.78,9.449
		c-9.141,3.237-15.256,11.882-15.256,21.576v96.156c0,9.694,6.115,18.347,15.264,21.567l26.772,9.458
		c4.928,1.732,10.304,1.732,15.232,0l26.78-9.458c9.149-3.22,15.265-11.873,15.265-21.567v-96.156
		C512,153.797,505.884,145.152,496.743,141.915z"/>
	<path class="st0" d="M400.27,163.596c-57,0-149.13,0-199.892,0c-14.167-0.007-27.951,1.96-40.881,5.636
		c-22.682,6.392-42.443,17.866-58.91,31.578c-24.764,20.672-42.784,46.134-56.788,72.093c-4.115,7.677-7.831,15.428-11.272,23.17
		l97.14,26.991c3.692-7.141,7.653-13.955,11.849-20.16c9.189-13.646,19.371-24.186,29.049-30.578
		c4.863-3.228,9.572-5.514,14.362-7.051c4.806-1.52,9.718-2.35,15.452-2.358c50.834,0,143.177,0,200.152,0
		c-0.154-1.073-0.26-2.163-0.26-3.269V163.596z"/>
</g>
</svg>