<svg width="421" height="426" viewBox="0 0 421 426" fill="none" xmlns="http://www.w3.org/2000/svg">
<path d="M333 371C333 408.379 278.379 426 211 426C143.621 426 89 408.379 89 371C89 303.621 143.621 249 211 249C278.379 249 333 303.621 333 371Z" fill="url(#paint0_radial_637_593)"/>
<g opacity="0.4" filter="url(#filter0_f_637_593)">
<ellipse cx="285.296" cy="304.865" rx="105.5" ry="50" transform="rotate(34.4056 285.296 304.865)" fill="#111111"/>
</g>
<circle cx="211" cy="182" r="64" fill="url(#paint1_radial_637_593)"/>
<path d="M209 174.5C121.4 174.5 91.5 145.5 91.5 134.5C91.5 125.167 114.5 118 206.5 118C298.5 118 326.5 122.5 326.5 134.5C326.5 146.5 289 174.5 209 174.5Z" fill="url(#paint2_radial_637_593)"/>
<g opacity="0.4" filter="url(#filter1_f_637_593)">
<path d="M286 163.5L185 142L260.5 127L330.5 148L308 166L286 163.5Z" fill="#111111"/>
</g>
<path d="M179 62.9994L157 128.499C151 147.499 264 147.499 261.5 128.499L239.5 62.9994C237.5 56.9998 181 55.5 179 62.9994Z" fill="url(#paint3_linear_637_593)"/>
<g filter="url(#filter2_dd_637_593)">
<path fill-rule="evenodd" clip-rule="evenodd" d="M100 365.298C116.227 369.176 134 356.874 134 331.178C134 305.482 117.773 278.447 100 272.243C82.2273 266.04 66 283.769 66 309.465C66 335.161 83.7727 361.421 100 365.298ZM98 355.446C110.886 358.507 125 348.796 125 328.509C125 308.222 112.114 286.879 98 281.982C83.8864 277.084 71 291.08 71 311.367C71 331.654 85.1136 352.385 98 355.446Z" fill="#7AEEE5"/>
</g>
<g filter="url(#filter3_bdii_637_593)">
<path d="M123 329.142C123 349.7 108.886 359.541 96 356.439C83.1136 353.336 69 332.329 69 311.772C69 291.215 81.8864 277.032 96 281.995C110.114 286.957 123 308.585 123 329.142Z" fill="#7AEEE5" fill-opacity="0.3" shape-rendering="crispEdges"/>
</g>
<g filter="url(#filter4_d_637_593)">
<path fill-rule="evenodd" clip-rule="evenodd" d="M96 366.298C112.227 370.176 130 357.874 130 332.178C130 306.482 113.773 279.447 96 273.243C78.2273 267.04 62 284.769 62 310.465C62 336.161 79.7727 362.421 96 366.298ZM94 356.446C106.886 359.507 121 349.796 121 329.509C121 309.222 108.114 287.879 94 282.981C79.8864 278.084 67 292.08 67 312.367C67 332.654 81.1136 353.385 94 356.446Z" fill="url(#paint4_linear_637_593)"/>
</g>
<g filter="url(#filter5_d_637_593)">
<path d="M127.646 354.404L164.021 390.779C165.903 393.404 161.903 396.904 159.778 395.022L123.403 358.646C121.903 356.403 125.403 352.904 127.646 354.404Z" fill="url(#paint5_linear_637_593)"/>
</g>
<g filter="url(#filter6_d_637_593)">
<path d="M234.5 374.316L215.5 280.816H204.5L188 374.316L210.5 397.316L234.5 374.316Z" fill="url(#paint6_radial_637_593)"/>
</g>
<g filter="url(#filter7_d_637_593)">
<path d="M224.5 265.815C220.5 261.816 199.5 262.315 196 265.815C196.558 272.625 199.009 275.977 204 281.815C209.798 284.246 212.177 283.296 216.5 281.815C221.401 275.556 223.244 272.047 224.5 265.815Z" fill="url(#paint7_radial_637_593)"/>
</g>
<defs>
<filter id="filter0_f_637_593" x="173.758" y="212.365" width="223.077" height="185.002" filterUnits="userSpaceOnUse" color-interpolation-filters="sRGB">
<feFlood flood-opacity="0" result="BackgroundImageFix"/>
<feBlend mode="normal" in="SourceGraphic" in2="BackgroundImageFix" result="shape"/>
<feGaussianBlur stdDeviation="10" result="effect1_foregroundBlur_637_593"/>
</filter>
<filter id="filter1_f_637_593" x="175" y="117" width="165.5" height="59" filterUnits="userSpaceOnUse" color-interpolation-filters="sRGB">
<feFlood flood-opacity="0" result="BackgroundImageFix"/>
<feBlend mode="normal" in="SourceGraphic" in2="BackgroundImageFix" result="shape"/>
<feGaussianBlur stdDeviation="5" result="effect1_foregroundBlur_637_593"/>
</filter>
<filter id="filter2_dd_637_593" x="66" y="271" width="72" height="107" filterUnits="userSpaceOnUse" color-interpolation-filters="sRGB">
<feFlood flood-opacity="0" result="BackgroundImageFix"/>
<feColorMatrix in="SourceAlpha" type="matrix" values="0 0 0 0 0 0 0 0 0 0 0 0 0 0 0 0 0 0 127 0" result="hardAlpha"/>
<feOffset dy="4"/>
<feComposite in2="hardAlpha" operator="out"/>
<feColorMatrix type="matrix" values="0 0 0 0 0 0 0 0 0 0 0 0 0 0 0 0 0 0 0.25 0"/>
<feBlend mode="normal" in2="BackgroundImageFix" result="effect1_dropShadow_637_593"/>
<feColorMatrix in="SourceAlpha" type="matrix" values="0 0 0 0 0 0 0 0 0 0 0 0 0 0 0 0 0 0 127 0" result="hardAlpha"/>
<feOffset dx="2" dy="10"/>
<feGaussianBlur stdDeviation="1"/>
<feComposite in2="hardAlpha" operator="out"/>
<feColorMatrix type="matrix" values="0 0 0 0 0 0 0 0 0 0 0 0 0 0 0 0 0 0 0.25 0"/>
<feBlend mode="normal" in2="effect1_dropShadow_637_593" result="effect2_dropShadow_637_593"/>
<feBlend mode="normal" in="SourceGraphic" in2="effect2_dropShadow_637_593" result="shape"/>
</filter>
<filter id="filter3_bdii_637_593" x="58" y="270" width="84" height="106" filterUnits="userSpaceOnUse" color-interpolation-filters="sRGB">
<feFlood flood-opacity="0" result="BackgroundImageFix"/>
<feGaussianBlur in="BackgroundImageFix" stdDeviation="1"/>
<feComposite in2="SourceAlpha" operator="in" result="effect1_backgroundBlur_637_593"/>
<feColorMatrix in="SourceAlpha" type="matrix" values="0 0 0 0 0 0 0 0 0 0 0 0 0 0 0 0 0 0 127 0" result="hardAlpha"/>
<feOffset dx="4" dy="4"/>
<feGaussianBlur stdDeviation="7.5"/>
<feComposite in2="hardAlpha" operator="out"/>
<feColorMatrix type="matrix" values="0 0 0 0 0 0 0 0 0 0 0 0 0 0 0 0 0 0 0.25 0"/>
<feBlend mode="normal" in2="effect1_backgroundBlur_637_593" result="effect2_dropShadow_637_593"/>
<feBlend mode="normal" in="SourceGraphic" in2="effect2_dropShadow_637_593" result="shape"/>
<feColorMatrix in="SourceAlpha" type="matrix" values="0 0 0 0 0 0 0 0 0 0 0 0 0 0 0 0 0 0 127 0" result="hardAlpha"/>
<feOffset dy="4"/>
<feGaussianBlur stdDeviation="2"/>
<feComposite in2="hardAlpha" operator="arithmetic" k2="-1" k3="1"/>
<feColorMatrix type="matrix" values="0 0 0 0 0 0 0 0 0 0 0 0 0 0 0 0 0 0 0.4 0"/>
<feBlend mode="normal" in2="shape" result="effect3_innerShadow_637_593"/>
<feColorMatrix in="SourceAlpha" type="matrix" values="0 0 0 0 0 0 0 0 0 0 0 0 0 0 0 0 0 0 127 0" result="hardAlpha"/>
<feOffset dx="-5" dy="-4"/>
<feGaussianBlur stdDeviation="2"/>
<feComposite in2="hardAlpha" operator="arithmetic" k2="-1" k3="1"/>
<feColorMatrix type="matrix" values="0 0 0 0 0.996078 0 0 0 0 0.996078 0 0 0 0 0.996078 0 0 0 0.2 0"/>
<feBlend mode="normal" in2="effect3_innerShadow_637_593" result="effect4_innerShadow_637_593"/>
</filter>
<filter id="filter4_d_637_593" x="62" y="272" width="76" height="103" filterUnits="userSpaceOnUse" color-interpolation-filters="sRGB">
<feFlood flood-opacity="0" result="BackgroundImageFix"/>
<feColorMatrix in="SourceAlpha" type="matrix" values="0 0 0 0 0 0 0 0 0 0 0 0 0 0 0 0 0 0 127 0" result="hardAlpha"/>
<feOffset dx="4" dy="4"/>
<feGaussianBlur stdDeviation="2"/>
<feComposite in2="hardAlpha" operator="out"/>
<feColorMatrix type="matrix" values="0 0 0 0 0 0 0 0 0 0 0 0 0 0 0 0 0 0 0.25 0"/>
<feBlend mode="normal" in2="BackgroundImageFix" result="effect1_dropShadow_637_593"/>
<feBlend mode="normal" in="SourceGraphic" in2="effect1_dropShadow_637_593" result="shape"/>
</filter>
<filter id="filter5_d_637_593" x="123.041" y="354.041" width="45.4697" height="55.5137" filterUnits="userSpaceOnUse" color-interpolation-filters="sRGB">
<feFlood flood-opacity="0" result="BackgroundImageFix"/>
<feColorMatrix in="SourceAlpha" type="matrix" values="0 0 0 0 0 0 0 0 0 0 0 0 0 0 0 0 0 0 127 0" result="hardAlpha"/>
<feOffset dx="2" dy="12"/>
<feGaussianBlur stdDeviation="1"/>
<feComposite in2="hardAlpha" operator="out"/>
<feColorMatrix type="matrix" values="0 0 0 0 0 0 0 0 0 0 0 0 0 0 0 0 0 0 0.25 0"/>
<feBlend mode="normal" in2="BackgroundImageFix" result="effect1_dropShadow_637_593"/>
<feBlend mode="normal" in="SourceGraphic" in2="effect1_dropShadow_637_593" result="shape"/>
</filter>
<filter id="filter6_d_637_593" x="184" y="280.816" width="54.5" height="124.5" filterUnits="userSpaceOnUse" color-interpolation-filters="sRGB">
<feFlood flood-opacity="0" result="BackgroundImageFix"/>
<feColorMatrix in="SourceAlpha" type="matrix" values="0 0 0 0 0 0 0 0 0 0 0 0 0 0 0 0 0 0 127 0" result="hardAlpha"/>
<feOffset dy="4"/>
<feGaussianBlur stdDeviation="2"/>
<feComposite in2="hardAlpha" operator="out"/>
<feColorMatrix type="matrix" values="0 0 0 0 0 0 0 0 0 0 0 0 0 0 0 0 0 0 0.25 0"/>
<feBlend mode="normal" in2="BackgroundImageFix" result="effect1_dropShadow_637_593"/>
<feBlend mode="normal" in="SourceGraphic" in2="effect1_dropShadow_637_593" result="shape"/>
</filter>
<filter id="filter7_d_637_593" x="192" y="263" width="36.5" height="28.3027" filterUnits="userSpaceOnUse" color-interpolation-filters="sRGB">
<feFlood flood-opacity="0" result="BackgroundImageFix"/>
<feColorMatrix in="SourceAlpha" type="matrix" values="0 0 0 0 0 0 0 0 0 0 0 0 0 0 0 0 0 0 127 0" result="hardAlpha"/>
<feOffset dy="4"/>
<feGaussianBlur stdDeviation="2"/>
<feComposite in2="hardAlpha" operator="out"/>
<feColorMatrix type="matrix" values="0 0 0 0 0 0 0 0 0 0 0 0 0 0 0 0 0 0 0.25 0"/>
<feBlend mode="normal" in2="BackgroundImageFix" result="effect1_dropShadow_637_593"/>
<feBlend mode="normal" in="SourceGraphic" in2="effect1_dropShadow_637_593" result="shape"/>
</filter>
<radialGradient id="paint0_radial_637_593" cx="0" cy="0" r="1" gradientUnits="userSpaceOnUse" gradientTransform="translate(123.5 281) rotate(30.1837) scale(226.742 236.077)">
<stop stop-color="#7AEEE5"/>
<stop offset="1" stop-color="#7AEEE5" stop-opacity="0"/>
</radialGradient>
<radialGradient id="paint1_radial_637_593" cx="0" cy="0" r="1" gradientUnits="userSpaceOnUse" gradientTransform="translate(63.5 266) rotate(-36.1101) scale(203.618 238.067)">
<stop stop-color="#7AEEE5"/>
<stop offset="1" stop-color="#7AEEE5" stop-opacity="0"/>
</radialGradient>
<radialGradient id="paint2_radial_637_593" cx="0" cy="0" r="1" gradientUnits="userSpaceOnUse" gradientTransform="translate(124.727 128.215) rotate(10.5167) scale(205.22 89.013)">
<stop stop-color="#63C2BA"/>
<stop offset="1" stop-color="#234441"/>
</radialGradient>
<linearGradient id="paint3_linear_637_593" x1="184" y1="67" x2="227.5" y2="65.5" gradientUnits="userSpaceOnUse">
<stop stop-color="#63C2BA"/>
<stop offset="1" stop-color="#234441"/>
</linearGradient>
<linearGradient id="paint4_linear_637_593" x1="47" y1="301.5" x2="175" y2="379.5" gradientUnits="userSpaceOnUse">
<stop stop-color="#7AEEE5"/>
<stop offset="1" stop-color="#468883"/>
</linearGradient>
<linearGradient id="paint5_linear_637_593" x1="162.903" y1="393.904" x2="124.121" y2="355.121" gradientUnits="userSpaceOnUse">
<stop stop-color="#468883"/>
<stop offset="0.0624892" stop-color="#6FD8CF"/>
<stop offset="0.893865" stop-color="#60BBB4"/>
<stop offset="1" stop-color="#468883"/>
</linearGradient>
<radialGradient id="paint6_radial_637_593" cx="0" cy="0" r="1" gradientUnits="userSpaceOnUse" gradientTransform="translate(193.5 312.316) rotate(63.5723) scale(93.2443 191.737)">
<stop stop-color="#7AEEE5"/>
<stop offset="1" stop-color="#192F2D"/>
</radialGradient>
<radialGradient id="paint7_radial_637_593" cx="0" cy="0" r="1" gradientUnits="userSpaceOnUse" gradientTransform="translate(194 267.316) rotate(56.853) scale(29.2618 65.0733)">
<stop stop-color="#7AEEE5"/>
<stop offset="1" stop-color="#192F2D"/>
</radialGradient>
</defs>
</svg>
