<svg width="421" height="426" viewBox="0 0 421 426" fill="none" xmlns="http://www.w3.org/2000/svg">
<path d="M331 342.078C331 379.456 276.379 397.078 209 397.078C141.621 397.078 87 379.456 87 342.078C87 274.699 141.621 220.078 209 220.078C276.379 220.078 331 274.699 331 342.078Z" fill="url(#paint0_radial_0_3)"/>
<g opacity="0.4" filter="url(#filter0_f_0_3)">
<ellipse cx="283.296" cy="275.943" rx="105.5" ry="50" transform="rotate(34.4056 283.296 275.943)" fill="#111111"/>
</g>
<circle cx="209" cy="153.078" r="64" fill="url(#paint1_radial_0_3)"/>
<path d="M207 145.578C119.4 145.578 89.5 116.578 89.5 105.578C89.5 96.2442 112.5 89.0775 204.5 89.0775C296.5 89.0775 324.5 93.5775 324.5 105.578C324.5 117.578 287 145.578 207 145.578Z" fill="url(#paint2_radial_0_3)"/>
<g opacity="0.4" filter="url(#filter1_f_0_3)">
<path d="M284 134.578L183 113.078L258.5 98.0775L328.5 119.078L306 137.078L284 134.578Z" fill="#111111"/>
</g>
<path d="M177 34.0775L155 99.5775C149 118.577 262 118.577 259.5 99.5775L237.5 34.0775C235.5 28.078 179 26.5781 177 34.0775Z" fill="url(#paint3_linear_0_3)"/>
<g filter="url(#filter2_dd_0_3)">
<path fill-rule="evenodd" clip-rule="evenodd" d="M98 336.376C114.227 340.253 132 327.952 132 302.256C132 276.559 115.773 249.524 98 243.321C80.2273 237.117 64 254.846 64 280.543C64 306.239 81.7727 332.498 98 336.376ZM96 326.523C108.886 329.585 123 319.873 123 299.586C123 279.3 110.114 257.957 96 253.059C81.8864 248.161 69 262.158 69 282.445C69 302.731 83.1136 323.462 96 326.523Z" fill="#7AEEE5"/>
</g>
<g filter="url(#filter3_bdii_0_3)">
<path d="M121 300.22C121 320.777 106.886 330.618 94 327.516C81.1136 324.414 67 303.407 67 282.85C67 262.292 79.8864 248.109 94 253.072C108.114 258.035 121 279.663 121 300.22Z" fill="#7AEEE5" fill-opacity="0.3" shape-rendering="crispEdges"/>
</g>
<g filter="url(#filter4_d_0_3)">
<path fill-rule="evenodd" clip-rule="evenodd" d="M94 337.376C110.227 341.253 128 328.952 128 303.256C128 277.559 111.773 250.524 94 244.321C76.2273 238.117 60 255.846 60 281.543C60 307.239 77.7727 333.498 94 337.376ZM92 327.523C104.886 330.585 119 320.873 119 300.586C119 280.3 106.114 258.957 92 254.059C77.8864 249.161 65 263.158 65 283.445C65 303.731 79.1136 324.462 92 327.523Z" fill="url(#paint4_linear_0_3)"/>
</g>
<g filter="url(#filter5_d_0_3)">
<path d="M125.646 325.481L162.022 361.856C163.904 364.482 159.904 367.982 157.779 366.099L121.404 329.724C119.903 327.48 123.404 323.982 125.646 325.481Z" fill="url(#paint5_linear_0_3)"/>
</g>
<g filter="url(#filter6_d_0_3)">
<path d="M232.5 345.394L213.5 251.894H202.5L186 345.394L208.5 368.394L232.5 345.394Z" fill="url(#paint6_radial_0_3)"/>
</g>
<g filter="url(#filter7_d_0_3)">
<path d="M222.5 236.893C218.5 232.894 197.5 233.393 194 236.893C194.558 243.703 197.009 247.054 202 252.893C207.798 255.323 210.177 254.374 214.5 252.893C219.401 246.633 221.244 243.125 222.5 236.893Z" fill="url(#paint7_radial_0_3)"/>
</g>
<defs>
<filter id="filter0_f_0_3" x="171.758" y="183.442" width="223.077" height="185.002" filterUnits="userSpaceOnUse" color-interpolation-filters="sRGB">
<feFlood flood-opacity="0" result="BackgroundImageFix"/>
<feBlend mode="normal" in="SourceGraphic" in2="BackgroundImageFix" result="shape"/>
<feGaussianBlur stdDeviation="10" result="effect1_foregroundBlur_0_3"/>
</filter>
<filter id="filter1_f_0_3" x="173" y="88.0775" width="165.5" height="59" filterUnits="userSpaceOnUse" color-interpolation-filters="sRGB">
<feFlood flood-opacity="0" result="BackgroundImageFix"/>
<feBlend mode="normal" in="SourceGraphic" in2="BackgroundImageFix" result="shape"/>
<feGaussianBlur stdDeviation="5" result="effect1_foregroundBlur_0_3"/>
</filter>
<filter id="filter2_dd_0_3" x="64" y="242.078" width="72" height="107" filterUnits="userSpaceOnUse" color-interpolation-filters="sRGB">
<feFlood flood-opacity="0" result="BackgroundImageFix"/>
<feColorMatrix in="SourceAlpha" type="matrix" values="0 0 0 0 0 0 0 0 0 0 0 0 0 0 0 0 0 0 127 0" result="hardAlpha"/>
<feOffset dy="4"/>
<feComposite in2="hardAlpha" operator="out"/>
<feColorMatrix type="matrix" values="0 0 0 0 0 0 0 0 0 0 0 0 0 0 0 0 0 0 0.25 0"/>
<feBlend mode="normal" in2="BackgroundImageFix" result="effect1_dropShadow_0_3"/>
<feColorMatrix in="SourceAlpha" type="matrix" values="0 0 0 0 0 0 0 0 0 0 0 0 0 0 0 0 0 0 127 0" result="hardAlpha"/>
<feOffset dx="2" dy="10"/>
<feGaussianBlur stdDeviation="1"/>
<feComposite in2="hardAlpha" operator="out"/>
<feColorMatrix type="matrix" values="0 0 0 0 0 0 0 0 0 0 0 0 0 0 0 0 0 0 0.25 0"/>
<feBlend mode="normal" in2="effect1_dropShadow_0_3" result="effect2_dropShadow_0_3"/>
<feBlend mode="normal" in="SourceGraphic" in2="effect2_dropShadow_0_3" result="shape"/>
</filter>
<filter id="filter3_bdii_0_3" x="56" y="241.078" width="84" height="106" filterUnits="userSpaceOnUse" color-interpolation-filters="sRGB">
<feFlood flood-opacity="0" result="BackgroundImageFix"/>
<feGaussianBlur in="BackgroundImageFix" stdDeviation="1"/>
<feComposite in2="SourceAlpha" operator="in" result="effect1_backgroundBlur_0_3"/>
<feColorMatrix in="SourceAlpha" type="matrix" values="0 0 0 0 0 0 0 0 0 0 0 0 0 0 0 0 0 0 127 0" result="hardAlpha"/>
<feOffset dx="4" dy="4"/>
<feGaussianBlur stdDeviation="7.5"/>
<feComposite in2="hardAlpha" operator="out"/>
<feColorMatrix type="matrix" values="0 0 0 0 0 0 0 0 0 0 0 0 0 0 0 0 0 0 0.25 0"/>
<feBlend mode="normal" in2="effect1_backgroundBlur_0_3" result="effect2_dropShadow_0_3"/>
<feBlend mode="normal" in="SourceGraphic" in2="effect2_dropShadow_0_3" result="shape"/>
<feColorMatrix in="SourceAlpha" type="matrix" values="0 0 0 0 0 0 0 0 0 0 0 0 0 0 0 0 0 0 127 0" result="hardAlpha"/>
<feOffset dy="4"/>
<feGaussianBlur stdDeviation="2"/>
<feComposite in2="hardAlpha" operator="arithmetic" k2="-1" k3="1"/>
<feColorMatrix type="matrix" values="0 0 0 0 0 0 0 0 0 0 0 0 0 0 0 0 0 0 0.4 0"/>
<feBlend mode="normal" in2="shape" result="effect3_innerShadow_0_3"/>
<feColorMatrix in="SourceAlpha" type="matrix" values="0 0 0 0 0 0 0 0 0 0 0 0 0 0 0 0 0 0 127 0" result="hardAlpha"/>
<feOffset dx="-5" dy="-4"/>
<feGaussianBlur stdDeviation="2"/>
<feComposite in2="hardAlpha" operator="arithmetic" k2="-1" k3="1"/>
<feColorMatrix type="matrix" values="0 0 0 0 0.996078 0 0 0 0 0.996078 0 0 0 0 0.996078 0 0 0 0.2 0"/>
<feBlend mode="normal" in2="effect3_innerShadow_0_3" result="effect4_innerShadow_0_3"/>
</filter>
<filter id="filter4_d_0_3" x="60" y="243.078" width="76" height="103" filterUnits="userSpaceOnUse" color-interpolation-filters="sRGB">
<feFlood flood-opacity="0" result="BackgroundImageFix"/>
<feColorMatrix in="SourceAlpha" type="matrix" values="0 0 0 0 0 0 0 0 0 0 0 0 0 0 0 0 0 0 127 0" result="hardAlpha"/>
<feOffset dx="4" dy="4"/>
<feGaussianBlur stdDeviation="2"/>
<feComposite in2="hardAlpha" operator="out"/>
<feColorMatrix type="matrix" values="0 0 0 0 0 0 0 0 0 0 0 0 0 0 0 0 0 0 0.25 0"/>
<feBlend mode="normal" in2="BackgroundImageFix" result="effect1_dropShadow_0_3"/>
<feBlend mode="normal" in="SourceGraphic" in2="effect1_dropShadow_0_3" result="shape"/>
</filter>
<filter id="filter5_d_0_3" x="121.041" y="325.119" width="45.4703" height="55.5139" filterUnits="userSpaceOnUse" color-interpolation-filters="sRGB">
<feFlood flood-opacity="0" result="BackgroundImageFix"/>
<feColorMatrix in="SourceAlpha" type="matrix" values="0 0 0 0 0 0 0 0 0 0 0 0 0 0 0 0 0 0 127 0" result="hardAlpha"/>
<feOffset dx="2" dy="12"/>
<feGaussianBlur stdDeviation="1"/>
<feComposite in2="hardAlpha" operator="out"/>
<feColorMatrix type="matrix" values="0 0 0 0 0 0 0 0 0 0 0 0 0 0 0 0 0 0 0.25 0"/>
<feBlend mode="normal" in2="BackgroundImageFix" result="effect1_dropShadow_0_3"/>
<feBlend mode="normal" in="SourceGraphic" in2="effect1_dropShadow_0_3" result="shape"/>
</filter>
<filter id="filter6_d_0_3" x="182" y="251.894" width="54.5" height="124.5" filterUnits="userSpaceOnUse" color-interpolation-filters="sRGB">
<feFlood flood-opacity="0" result="BackgroundImageFix"/>
<feColorMatrix in="SourceAlpha" type="matrix" values="0 0 0 0 0 0 0 0 0 0 0 0 0 0 0 0 0 0 127 0" result="hardAlpha"/>
<feOffset dy="4"/>
<feGaussianBlur stdDeviation="2"/>
<feComposite in2="hardAlpha" operator="out"/>
<feColorMatrix type="matrix" values="0 0 0 0 0 0 0 0 0 0 0 0 0 0 0 0 0 0 0.25 0"/>
<feBlend mode="normal" in2="BackgroundImageFix" result="effect1_dropShadow_0_3"/>
<feBlend mode="normal" in="SourceGraphic" in2="effect1_dropShadow_0_3" result="shape"/>
</filter>
<filter id="filter7_d_0_3" x="190" y="234.078" width="36.5" height="28.303" filterUnits="userSpaceOnUse" color-interpolation-filters="sRGB">
<feFlood flood-opacity="0" result="BackgroundImageFix"/>
<feColorMatrix in="SourceAlpha" type="matrix" values="0 0 0 0 0 0 0 0 0 0 0 0 0 0 0 0 0 0 127 0" result="hardAlpha"/>
<feOffset dy="4"/>
<feGaussianBlur stdDeviation="2"/>
<feComposite in2="hardAlpha" operator="out"/>
<feColorMatrix type="matrix" values="0 0 0 0 0 0 0 0 0 0 0 0 0 0 0 0 0 0 0.25 0"/>
<feBlend mode="normal" in2="BackgroundImageFix" result="effect1_dropShadow_0_3"/>
<feBlend mode="normal" in="SourceGraphic" in2="effect1_dropShadow_0_3" result="shape"/>
</filter>
<radialGradient id="paint0_radial_0_3" cx="0" cy="0" r="1" gradientUnits="userSpaceOnUse" gradientTransform="translate(121.5 252.078) rotate(30.1837) scale(226.742 236.077)">
<stop stop-color="#7AEEE5"/>
<stop offset="1" stop-color="#7AEEE5" stop-opacity="0"/>
</radialGradient>
<radialGradient id="paint1_radial_0_3" cx="0" cy="0" r="1" gradientUnits="userSpaceOnUse" gradientTransform="translate(61.5 237.078) rotate(-36.1101) scale(203.618 238.067)">
<stop stop-color="#7AEEE5"/>
<stop offset="1" stop-color="#7AEEE5" stop-opacity="0"/>
</radialGradient>
<radialGradient id="paint2_radial_0_3" cx="0" cy="0" r="1" gradientUnits="userSpaceOnUse" gradientTransform="translate(122.727 99.2922) rotate(10.5167) scale(205.22 89.013)">
<stop stop-color="#63C2BA"/>
<stop offset="1" stop-color="#234441"/>
</radialGradient>
<linearGradient id="paint3_linear_0_3" x1="182" y1="38.0781" x2="225.5" y2="36.5781" gradientUnits="userSpaceOnUse">
<stop stop-color="#63C2BA"/>
<stop offset="1" stop-color="#234441"/>
</linearGradient>
<linearGradient id="paint4_linear_0_3" x1="45" y1="272.578" x2="173" y2="350.578" gradientUnits="userSpaceOnUse">
<stop stop-color="#7AEEE5"/>
<stop offset="1" stop-color="#468883"/>
</linearGradient>
<linearGradient id="paint5_linear_0_3" x1="160.904" y1="364.982" x2="122.121" y2="326.199" gradientUnits="userSpaceOnUse">
<stop stop-color="#468883"/>
<stop offset="0.0624892" stop-color="#6FD8CF"/>
<stop offset="0.893865" stop-color="#60BBB4"/>
<stop offset="1" stop-color="#468883"/>
</linearGradient>
<radialGradient id="paint6_radial_0_3" cx="0" cy="0" r="1" gradientUnits="userSpaceOnUse" gradientTransform="translate(191.5 283.394) rotate(63.5723) scale(93.2443 191.737)">
<stop stop-color="#7AEEE5"/>
<stop offset="1" stop-color="#192F2D"/>
</radialGradient>
<radialGradient id="paint7_radial_0_3" cx="0" cy="0" r="1" gradientUnits="userSpaceOnUse" gradientTransform="translate(192 238.394) rotate(56.853) scale(29.2618 65.0733)">
<stop stop-color="#7AEEE5"/>
<stop offset="1" stop-color="#192F2D"/>
</radialGradient>
</defs>
</svg>
