<svg width="24" height="24" viewBox="0 0 24 24" fill="none" xmlns="http://www.w3.org/2000/svg">
<path d="M19.6451 4.36707C19.4183 4.13984 19.1105 4.01214 18.7895 4.01214C18.4685 4.01214 18.1607 4.13984 17.934 4.36707L12 10.289L6.06598 4.35493C5.83926 4.1277 5.53146 4 5.21047 4C4.88947 4 4.58167 4.1277 4.35495 4.35493C3.88168 4.8282 3.88168 5.5927 4.35495 6.06597L10.289 12L4.35495 17.934C3.88168 18.4073 3.88168 19.1718 4.35495 19.6451C4.82821 20.1183 5.59272 20.1183 6.06598 19.6451L12 13.711L17.934 19.6451C18.4073 20.1183 19.1718 20.1183 19.6451 19.6451C20.1183 19.1718 20.1183 18.4073 19.6451 17.934L13.711 12L19.6451 6.06597C20.1062 5.60484 20.1062 4.8282 19.6451 4.36707Z" fill="white"/>
</svg>
