<svg width="24" height="24" viewBox="0 0 24 24" fill="none" xmlns="http://www.w3.org/2000/svg">
<path d="M15.003 4C15.262 4 15.587 4.068 15.848 4.132C16.758 4.352 17.837 4.625 18.603 5.2C19.316 5.735 19.87 6.668 20.298 7.616C21.188 9.591 21.807 12.224 22.021 14.226C22.123 15.176 22.148 16.132 21.965 16.775C21.875 17.091 21.68 17.329 21.543 17.475C21.125 17.918 20.587 18.249 20.055 18.55L19.791 18.699C19.6171 18.7957 19.4421 18.8904 19.266 18.983L18.744 19.253L18.027 19.61L17.45 19.894C17.2389 19.9998 16.9971 20.0274 16.7675 19.972C16.538 19.9166 16.3354 19.7817 16.1958 19.5913C16.0561 19.4008 15.9883 19.1671 16.0045 18.9315C16.0207 18.6959 16.1197 18.4736 16.284 18.304L15.85 17.436C14.6021 17.8152 13.3043 18.0054 12 18C10.63 18 9.32301 17.8 8.15001 17.436L7.71701 18.302C7.88197 18.4713 7.98162 18.6936 7.99827 18.9294C8.01493 19.1652 7.94752 19.3992 7.808 19.5901C7.66848 19.7809 7.46588 19.9161 7.23614 19.9717C7.0064 20.0274 6.76438 19.9998 6.55301 19.894L6.00901 19.624C5.40501 19.326 4.80101 19.028 4.21301 18.699C3.59901 18.356 2.94801 17.991 2.46101 17.474C2.26667 17.2776 2.122 17.0376 2.03901 16.774C1.85501 16.132 1.88101 15.177 1.98201 14.226C2.19601 12.224 2.81501 9.591 3.70601 7.616C4.13301 6.668 4.68701 5.735 5.40001 5.2C6.16601 4.625 7.24501 4.352 8.15501 4.132C8.41601 4.068 8.74001 4 9.00001 4C9.14383 3.99988 9.28599 4.03078 9.41678 4.09059C9.54757 4.15041 9.66392 4.23773 9.75789 4.3466C9.85187 4.45548 9.92125 4.58334 9.96131 4.72147C10.0014 4.8596 10.0112 5.00474 9.99001 5.147C10.6555 5.04854 11.3273 4.9994 12 5C12.691 5 13.366 5.05 14.014 5.148C13.9927 5.00567 14.0024 4.86041 14.0424 4.72216C14.0824 4.58391 14.1517 4.45592 14.2457 4.34693C14.3397 4.23794 14.4561 4.15052 14.587 4.09065C14.7178 4.03078 14.8591 3.99985 15.003 4ZM16.357 6.363C16.207 6.315 16.171 6.336 16.117 6.426L16.055 6.538C15.8934 6.81506 15.648 7.03367 15.3542 7.16234C15.0603 7.29102 14.7332 7.32311 14.42 7.254C13.6247 7.08328 12.8134 6.99813 12 7C11.148 7 10.333 7.09 9.58001 7.254C9.26678 7.32311 8.9397 7.29102 8.64588 7.16234C8.35205 7.03367 8.10665 6.81506 7.94501 6.538L7.88301 6.427C7.83001 6.337 7.79401 6.316 7.64501 6.363C7.28901 6.476 6.90701 6.597 6.60001 6.8C6.31301 7.015 5.93001 7.55 5.52901 8.439C4.76301 10.136 4.16301 12.643 3.97101 14.439C3.93101 14.818 3.91001 15.143 3.90501 15.411V15.705C3.90901 15.883 3.92201 16.024 3.94001 16.127C4.19401 16.375 4.50801 16.57 4.82301 16.749L5.50501 17.126L5.95101 17.361L6.31501 16.633C6.13878 16.4688 6.02774 16.2465 6.00231 16.007C5.97688 15.7674 6.03877 15.5268 6.17659 15.3292C6.31442 15.1317 6.51892 14.9905 6.7525 14.9317C6.98609 14.8728 7.23306 14.9003 7.44801 15.009C8.66401 15.62 10.246 16 12 16C13.753 16 15.336 15.618 16.552 15.01C16.7578 14.9069 16.9928 14.878 17.2175 14.928C17.4421 14.9781 17.6426 15.1041 17.7851 15.2848C17.9276 15.4655 18.0035 15.6899 17.9998 15.92C17.9961 16.1501 17.9132 16.3719 17.765 16.548L17.685 16.633L18.049 17.363C18.347 17.209 18.646 17.046 18.946 16.88C19.336 16.664 19.746 16.437 20.063 16.127C20.081 16.024 20.093 15.883 20.098 15.705V15.411C20.0899 15.0859 20.0679 14.7612 20.032 14.438C19.84 12.643 19.24 10.136 18.474 8.438C18.074 7.55 17.69 7.015 17.404 6.8C17.096 6.597 16.714 6.476 16.357 6.363ZM8.75001 10.5C9.21414 10.5 9.65926 10.6844 9.98745 11.0126C10.3156 11.3408 10.5 11.7859 10.5 12.25C10.5 12.7141 10.3156 13.1592 9.98745 13.4874C9.65926 13.8156 9.21414 14 8.75001 14C8.28589 14 7.84077 13.8156 7.51258 13.4874C7.18439 13.1592 7.00001 12.7141 7.00001 12.25C7.00001 11.7859 7.18439 11.3408 7.51258 11.0126C7.84077 10.6844 8.28589 10.5 8.75001 10.5ZM15.25 10.5C15.7141 10.5 16.1593 10.6844 16.4875 11.0126C16.8156 11.3408 17 11.7859 17 12.25C17 12.7141 16.8156 13.1592 16.4875 13.4874C16.1593 13.8156 15.7141 14 15.25 14C14.7859 14 14.3408 13.8156 14.0126 13.4874C13.6844 13.1592 13.5 12.7141 13.5 12.25C13.5 11.7859 13.6844 11.3408 14.0126 11.0126C14.3408 10.6844 14.7859 10.5 15.25 10.5Z" fill="#FEFEFE"/>
</svg>
