<svg width="24" height="24" viewBox="0 0 24 24" fill="none" xmlns="http://www.w3.org/2000/svg">
<path fill-rule="evenodd" clip-rule="evenodd" d="M4 12C4.00014 10.4605 4.44451 8.95364 5.27979 7.66038C6.11506 6.36712 7.30576 5.34234 8.70901 4.70901C10.1123 4.07568 11.6684 3.8607 13.1908 4.08987C14.7132 4.31904 16.1372 4.98262 17.2918 6.00099C18.4464 7.01936 19.2826 8.34926 19.7002 9.83111C20.1177 11.313 20.0988 12.8838 19.6457 14.3552C19.1926 15.8265 18.3246 17.1359 17.1458 18.1262C15.967 19.1165 14.5275 19.7456 13 19.938V14H15C15.2652 14 15.5196 13.8946 15.7071 13.7071C15.8946 13.5196 16 13.2652 16 13C16 12.7348 15.8946 12.4804 15.7071 12.2929C15.5196 12.1054 15.2652 12 15 12H13V10C13 9.73478 13.1054 9.48043 13.2929 9.29289C13.4804 9.10536 13.7348 9 14 9H14.5C14.7652 9 15.0196 8.89464 15.2071 8.70711C15.3946 8.51957 15.5 8.26522 15.5 8C15.5 7.73478 15.3946 7.48043 15.2071 7.29289C15.0196 7.10536 14.7652 7 14.5 7H14C13.2044 7 12.4413 7.31607 11.8787 7.87868C11.3161 8.44129 11 9.20435 11 10V12H9C8.73478 12 8.48043 12.1054 8.29289 12.2929C8.10536 12.4804 8 12.7348 8 13C8 13.2652 8.10536 13.5196 8.29289 13.7071C8.48043 13.8946 8.73478 14 9 14H11V19.938C9.0667 19.6942 7.28882 18.7533 6 17.2917C4.71119 15.8302 4.00003 13.9486 4 12ZM12 22C17.523 22 22 17.523 22 12C22 6.477 17.523 2 12 2C6.477 2 2 6.477 2 12C2 17.523 6.477 22 12 22Z" fill="#FEFEFE"/>
</svg>
