<svg width="24" height="24" viewBox="0 0 24 24" fill="none" xmlns="http://www.w3.org/2000/svg">
<path d="M6.31499 6.17556C6.06499 5.53756 6.07499 4.80856 6.18599 4.14156C6.95018 4.37054 7.66788 4.73277 8.30598 5.21156C8.58599 5.42556 8.95299 5.49456 9.29499 5.39156C10.1726 5.129 11.084 4.99692 12 4.99956C12.961 4.99956 13.874 5.13956 14.703 5.39056C15.045 5.49456 15.412 5.42456 15.691 5.21056C16.3288 4.73188 17.0461 4.36965 17.81 4.14056C17.921 4.80756 17.93 5.53656 17.682 6.17356C17.532 6.55756 17.607 6.99956 17.89 7.31356C18.614 8.11656 19 9.03956 19 9.99956C19 12.1136 17.03 14.1866 13.866 14.8176C13.074 14.9756 12.765 15.9726 13.371 16.5436C13.76 16.9096 14 17.4256 14 17.9996V20.9996C14 21.2648 14.1053 21.5191 14.2929 21.7067C14.4804 21.8942 14.7348 21.9996 15 21.9996C15.2652 21.9996 15.5196 21.8942 15.7071 21.7067C15.8946 21.5191 16 21.2648 16 20.9996V17.9996C16 17.4296 15.88 16.8876 15.666 16.3966C18.683 15.3496 21 12.9926 21 9.99956C21 8.65256 20.516 7.41456 19.713 6.37756C19.923 5.55756 19.904 4.73156 19.824 4.09756C19.753 3.52956 19.654 2.78556 19.254 2.34156C18.659 1.68256 17.674 2.07056 16.974 2.30956C16.2231 2.56365 15.5087 2.91497 14.849 3.35456C13.918 3.11698 12.9608 2.9977 12 2.99956C11.006 2.99956 10.047 3.12456 9.14899 3.35556C8.48931 2.91596 7.7749 2.56464 7.02399 2.31056C6.32399 2.07056 5.33799 1.68256 4.74299 2.34156C4.33499 2.79356 4.24999 3.47856 4.17699 4.06056L4.17199 4.09856C4.09199 4.73356 4.07399 5.56056 4.28399 6.38156C3.48399 7.41756 2.99999 8.65356 2.99999 9.99956C2.99999 12.9916 5.31698 15.3496 8.33398 16.3966C8.11561 16.8958 8.00194 17.4346 7.99999 17.9796L7.83198 18.0136C7.11498 18.1126 6.65598 18.0236 6.34399 17.8916C5.58399 17.5696 5.19199 16.7586 4.71399 16.1386C4.41599 15.7536 3.98199 15.2726 3.31599 15.0506C3.19136 15.0091 3.05978 14.9925 2.92876 15.0019C2.79775 15.0112 2.66985 15.0463 2.55239 15.1051C2.31515 15.2238 2.13479 15.4319 2.05099 15.6836C1.96718 15.9353 1.98678 16.2099 2.1055 16.4472C2.22421 16.6844 2.43229 16.8648 2.68399 16.9486C3.24199 17.1346 3.62799 18.0906 3.98199 18.5146C4.35499 18.9626 4.85099 19.4306 5.56199 19.7326C6.24399 20.0226 7.04499 20.1256 7.99999 20.0086V20.9996C7.99999 21.2648 8.10534 21.5191 8.29288 21.7067C8.48041 21.8942 8.73477 21.9996 8.99999 21.9996C9.2652 21.9996 9.51956 21.8942 9.70709 21.7067C9.89463 21.5191 9.99998 21.2648 9.99998 20.9996V17.9996C9.99998 17.4256 10.24 16.9096 10.629 16.5436C11.236 15.9716 10.926 14.9756 10.134 14.8176C6.96898 14.1866 4.99999 12.1136 4.99999 9.99956C4.99999 9.04156 5.38498 8.11856 6.10799 7.31556C6.39099 7.00156 6.46499 6.55956 6.31499 6.17556Z" fill="#FEFEFE"/>
</svg>
