<svg width="24" height="24" viewBox="0 0 24 24" fill="none" xmlns="http://www.w3.org/2000/svg">
<path d="M23.625 9.75039C23.6246 9.12574 23.451 8.51345 23.1233 7.98166C22.7956 7.44987 22.3268 7.01945 21.769 6.73831C21.2112 6.45718 20.5863 6.33636 19.9639 6.38931C19.3415 6.44225 18.746 6.66688 18.2437 7.0382C16.7017 6.28069 15.0306 5.82108 13.3181 5.68351L13.6743 3.54507L15.1434 3.78976C15.317 4.25364 15.6389 4.64726 16.059 4.90957C16.4792 5.17188 16.9742 5.28821 17.4672 5.24053C17.9602 5.19285 18.4237 4.98382 18.7858 4.64586C19.1479 4.30789 19.3884 3.85989 19.4699 3.37133C19.5514 2.88277 19.4695 2.38096 19.2367 1.94374C19.004 1.50651 18.6335 1.1583 18.1827 0.953114C17.7318 0.747929 17.2259 0.697236 16.7434 0.808899C16.2608 0.920562 15.8286 1.18834 15.5137 1.5707L12.9375 1.14039C12.7917 1.11567 12.6425 1.11992 12.4983 1.15292C12.3542 1.18591 12.218 1.24699 12.0975 1.33267C11.977 1.41835 11.8745 1.52694 11.796 1.65224C11.7175 1.77753 11.6645 1.91708 11.64 2.06289L11.0418 5.65445C9.1387 5.77726 7.31245 6.25351 5.7562 7.0382C5.07758 6.5413 4.23788 6.3157 3.40161 6.4056C2.56533 6.4955 1.79276 6.89441 1.23526 7.52419C0.67775 8.15396 0.375486 8.96921 0.387684 9.81021C0.399883 10.6512 0.725665 11.4574 1.3012 12.0707C1.18434 12.5383 1.12515 13.0184 1.12495 13.5004C1.12495 15.6838 2.31089 17.7069 4.46527 19.1985C6.49308 20.6019 9.1687 21.3754 12 21.3754C14.8312 21.3754 17.5068 20.6019 19.5346 19.1985C21.689 17.7069 22.875 15.6838 22.875 13.5004C22.8748 13.0184 22.8156 12.5383 22.6987 12.0707C23.2916 11.4434 23.6229 10.6135 23.625 9.75039ZM20.8209 10.7198C20.5856 10.8576 20.4084 11.0761 20.3222 11.3348C20.2359 11.5934 20.2466 11.8746 20.3521 12.126C20.5295 12.5627 20.6221 13.0291 20.625 13.5004C20.625 14.9235 19.7812 16.2894 18.254 17.3488C16.5984 18.4944 14.3775 19.1254 12 19.1254C9.62245 19.1254 7.4062 18.4944 5.74589 17.3488C4.2187 16.2894 3.37495 14.9235 3.37495 13.5004C3.37621 13.0302 3.46655 12.5645 3.6412 12.1279C3.74731 11.8772 3.75896 11.5966 3.67397 11.338C3.58899 11.0795 3.41314 10.8605 3.17902 10.7216C3.03426 10.6371 2.91023 10.5213 2.81599 10.3827C2.72174 10.244 2.65967 10.0861 2.6343 9.92042C2.60893 9.75472 2.62091 9.58545 2.66936 9.42498C2.71781 9.26451 2.80151 9.11689 2.91434 8.99293C3.02717 8.86896 3.16628 8.77177 3.32149 8.70847C3.4767 8.64516 3.6441 8.61734 3.81145 8.62705C3.97879 8.63675 4.14185 8.68372 4.28871 8.76453C4.43557 8.84535 4.56252 8.95796 4.66026 9.09414C4.82653 9.32224 5.07247 9.47951 5.34929 9.53474C5.62611 9.58996 5.91357 9.53911 6.15464 9.39226L6.17527 9.38007C7.77558 8.40789 9.8437 7.87539 12 7.87539C14.1562 7.87539 16.2187 8.40882 17.8209 9.37539L17.8415 9.38757C18.0824 9.536 18.3703 9.58823 18.648 9.53385C18.9256 9.47946 19.1726 9.32247 19.3396 9.09414C19.4428 8.94889 19.5793 8.83051 19.7377 8.74895C19.8961 8.66739 20.0718 8.62501 20.25 8.62539C20.4968 8.62538 20.7367 8.70654 20.9329 8.85637C21.129 9.0062 21.2705 9.21637 21.3354 9.4545C21.4003 9.69263 21.3851 9.9455 21.2921 10.1741C21.1992 10.4028 21.0336 10.5945 20.8209 10.7198ZM8.24995 13.8754C7.87911 13.8754 7.5166 13.7654 7.20826 13.5594C6.89992 13.3534 6.65959 13.0605 6.51768 12.7179C6.37576 12.3753 6.33863 11.9983 6.41098 11.6346C6.48333 11.2709 6.6619 10.9368 6.92413 10.6746C7.18635 10.4123 7.52044 10.2338 7.88416 10.1614C8.24787 10.0891 8.62487 10.1262 8.96748 10.2681C9.3101 10.41 9.60293 10.6504 9.80896 10.9587C10.015 11.267 10.125 11.6295 10.125 12.0004C10.125 12.4977 9.92741 12.9746 9.57578 13.3262C9.22415 13.6778 8.74723 13.8754 8.24995 13.8754ZM17.625 12.0004C17.625 12.3712 17.515 12.7337 17.309 13.0421C17.1029 13.3504 16.8101 13.5907 16.4675 13.7327C16.1249 13.8746 15.7479 13.9117 15.3842 13.8394C15.0204 13.767 14.6864 13.5884 14.4241 13.3262C14.1619 13.064 13.9833 12.7299 13.911 12.3662C13.8386 12.0025 13.8758 11.6255 14.0177 11.2829C14.1596 10.9402 14.3999 10.6474 14.7083 10.4414C15.0166 10.2354 15.3791 10.1254 15.75 10.1254C16.2472 10.1254 16.7241 10.3229 17.0758 10.6746C17.4274 11.0262 17.625 11.5031 17.625 12.0004ZM15.7012 15.7991C15.7446 15.9407 15.7595 16.0895 15.7453 16.2368C15.731 16.3842 15.6878 16.5273 15.6182 16.658C15.5485 16.7886 15.4537 16.9042 15.3392 16.9982C15.2248 17.0921 15.0929 17.1625 14.9512 17.2054C13.0231 17.771 10.9731 17.771 9.04495 17.2054C8.75902 17.1184 8.51936 16.9213 8.37871 16.6576C8.23806 16.3939 8.20793 16.0851 8.29495 15.7991C8.38198 15.5132 8.57902 15.2735 8.84275 15.1329C9.10647 14.9922 9.41527 14.9621 9.7012 15.0491C11.2016 15.4835 12.7945 15.4835 14.295 15.0491C14.4365 15.0058 14.5853 14.9908 14.7326 15.005C14.88 15.0193 15.0231 15.0625 15.1538 15.1322C15.2844 15.2019 15.4 15.2966 15.494 15.4111C15.5879 15.5255 15.6583 15.6574 15.7012 15.7991Z" fill="#FEFEFE"/>
</svg>
