<svg width="22" height="20" viewBox="0 0 22 20" fill="none" xmlns="http://www.w3.org/2000/svg">
<path d="M21.3279 0.295784C21.16 0.150986 20.9558 0.0547371 20.7372 0.0174025C20.5187 -0.0199321 20.2941 0.00306219 20.0876 0.0839091L1.08823 7.51922C0.743383 7.65353 0.451485 7.89619 0.256454 8.2107C0.061424 8.52522 -0.0261877 8.89456 0.00680233 9.26316C0.0397924 9.63176 0.1916 9.97968 0.439381 10.2546C0.687162 10.5294 1.01751 10.7164 1.38073 10.7873L6.00073 11.6939V16.8745C6.00072 17.2483 6.11243 17.6136 6.32151 17.9234C6.53059 18.2332 6.82751 18.4735 7.17414 18.6134C7.52077 18.7532 7.9013 18.7863 8.26686 18.7083C8.63242 18.6304 8.96633 18.4449 9.22573 18.1758L11.351 15.9717L14.846 19.0308C15.0898 19.2452 15.3851 19.3926 15.703 19.4586C16.0209 19.5247 16.3505 19.507 16.6595 19.4074C16.9685 19.3078 17.2464 19.1297 17.4659 18.8904C17.6853 18.6512 17.839 18.3591 17.9117 18.0427L21.7198 1.4911C21.7693 1.27506 21.759 1.04959 21.69 0.838976C21.6209 0.628357 21.4958 0.440555 21.3279 0.295784ZM12.6954 5.39203L6.8651 9.57047L3.63729 8.93766L12.6954 5.39203ZM8.25073 15.9427V13.2511L9.65698 14.4839L8.25073 15.9427ZM15.8595 16.9289L8.93323 10.8567L18.8998 3.71485L15.8595 16.9289Z" fill="#FEFEFE"/>
</svg>
