<svg width="188" height="42" viewBox="0 0 188 42" fill="none" xmlns="http://www.w3.org/2000/svg">
<path fill-rule="evenodd" clip-rule="evenodd" d="M3.71349e-05 3H29L13.9877 17.9942L28.9975 39H0L3.71349e-05 3ZM12.6493 19.349L1.91968 30.0859V37.0502H25.2608L12.6493 19.349Z" fill="white"/>
<path d="M40.4778 9.07903L45.4213 16H35.8751V4.13548H45.4213L40.4778 9.07903ZM40.0345 9.52224L36.5059 13.0509V15.3693H44.211L40.0345 9.52224ZM52.3292 16V4.13548H52.96V15.3693H61.2276V16H52.3292ZM67.4878 4.13548L71.6983 10.4769L75.8748 4.13548H76.6248L72.0051 11.1417V16H71.3744V11.1417L66.7377 4.13548H67.4878ZM82.7315 16V4.13548H83.3964L91.6811 12.1815V4.13548H92.3118V16H91.6811V13.068L83.3623 4.95372V16H82.7315ZM107.845 4.13548V4.76621H103.362V16H102.748V4.76621H98.2651V4.13548H107.845ZM118.418 4.13548H119.083L123.959 16H123.277L121.674 12.0793H115.827L114.208 16H113.543L118.418 4.13548ZM116.083 11.4656H121.419L118.742 4.95372L116.083 11.4656ZM137.003 4.52755C137.685 4.84576 138.219 5.31738 138.606 5.94243C139.003 6.56748 139.202 7.26071 139.202 8.02213C139.202 8.90856 138.93 9.70407 138.384 10.4087C137.85 11.1019 137.162 11.5622 136.321 11.7895L139.339 16H138.589L135.674 11.9088L135.128 11.9258H130.849V16H130.219V4.13548H134.736C135.236 4.13548 135.662 4.16957 136.015 4.23776C136.378 4.29458 136.708 4.39118 137.003 4.52755ZM135.299 11.2951C135.89 11.2951 136.435 11.1474 136.935 10.8519C137.435 10.5564 137.833 10.1587 138.128 9.65862C138.424 9.15858 138.572 8.61308 138.572 8.02213C138.572 7.36299 138.395 6.76636 138.043 6.23222C137.702 5.69809 137.225 5.30034 136.611 5.03895C136.168 4.85712 135.543 4.76621 134.736 4.76621H130.849V11.2951H135.299ZM36.3695 27.1355H45.2167V27.7662H37.0002V32.7439H43.6484V33.3746H37.0002V39H36.3695V27.1355ZM55.9943 26.8798C56.8807 26.8798 57.6989 27.1014 58.449 27.5446C59.1991 27.9764 59.79 28.5674 60.2219 29.3175C60.6651 30.0675 60.8867 30.8858 60.8867 31.7722V34.3633C60.8867 35.2497 60.6651 36.068 60.2219 36.818C59.79 37.5681 59.1991 38.1647 58.449 38.6079C57.6989 39.0398 56.8807 39.2557 55.9943 39.2557C55.1078 39.2557 54.2896 39.0398 53.5395 38.6079C52.7895 38.1647 52.1929 37.5681 51.7496 36.818C51.3178 36.068 51.1019 35.2497 51.1019 34.3633V31.7722C51.1019 30.8858 51.3178 30.0675 51.7496 29.3175C52.1929 28.5674 52.7895 27.9764 53.5395 27.5446C54.2896 27.1014 55.1078 26.8798 55.9943 26.8798ZM51.7326 34.3633C51.7326 35.1361 51.9201 35.852 52.2951 36.5112C52.6815 37.159 53.1986 37.676 53.8464 38.0624C54.5055 38.4375 55.2215 38.625 55.9943 38.625C56.7671 38.625 57.4773 38.4375 58.1251 38.0624C58.7843 37.676 59.3013 37.159 59.6764 36.5112C60.0628 35.852 60.256 35.1361 60.256 34.3633V31.7722C60.256 30.9994 60.0628 30.2891 59.6764 29.6413C59.3013 28.9822 58.7843 28.4651 58.1251 28.0901C57.4773 27.7037 56.7671 27.5105 55.9943 27.5105C55.2215 27.5105 54.5055 27.7037 53.8464 28.0901C53.1986 28.4651 52.6815 28.9822 52.2951 29.6413C51.9201 30.2891 51.7326 30.9994 51.7326 31.7722V34.3633ZM66.8911 27.1355H67.5219V34.4656C67.5219 35.2156 67.7094 35.9089 68.0844 36.5453C68.4594 37.1817 68.9651 37.6874 69.6016 38.0624C70.238 38.4375 70.9312 38.625 71.6813 38.625C72.4313 38.625 73.1245 38.4375 73.761 38.0624C74.3974 37.6874 74.9031 37.1817 75.2781 36.5453C75.6531 35.9089 75.8407 35.2156 75.8407 34.4656V27.1355H76.4714V34.4656C76.4714 35.3293 76.2555 36.1305 75.8236 36.8692C75.3918 37.5965 74.8065 38.1761 74.0678 38.6079C73.3405 39.0398 72.545 39.2557 71.6813 39.2557C70.8176 39.2557 70.0164 39.0398 69.2777 38.6079C68.5503 38.1761 67.9708 37.5965 67.5389 36.8692C67.1071 36.1305 66.8911 35.3293 66.8911 34.4656V27.1355ZM82.7315 39V27.1355H83.3964L91.6811 35.1815V27.1355H92.3118V39H91.6811V36.068L83.3623 27.9537V39H82.7315ZM102.936 27.1355C103.8 27.1355 104.595 27.3514 105.322 27.7833C106.061 28.2151 106.646 28.8004 107.078 29.5391C107.51 30.2664 107.726 31.0619 107.726 31.9256V34.2099C107.726 35.0736 107.51 35.8748 107.078 36.6135C106.646 37.3408 106.061 37.9204 105.322 38.3522C104.595 38.7841 103.8 39 102.936 39H98.5549V27.1355H102.936ZM107.095 31.9256C107.095 31.1756 106.908 30.4823 106.533 29.8459C106.158 29.2095 105.646 28.7038 104.999 28.3287C104.362 27.9537 103.669 27.7662 102.919 27.7662H99.1856V38.3693H102.919C103.669 38.3693 104.362 38.1818 104.999 37.8067C105.646 37.4317 106.158 36.926 106.533 36.2896C106.908 35.6532 107.095 34.9599 107.095 34.2099V31.9256ZM118.418 27.1355H119.083L123.959 39H123.277L121.674 35.0793H115.827L114.208 39H113.543L118.418 27.1355ZM116.083 34.4656H121.419L118.742 27.9537L116.083 34.4656ZM139.219 27.1355V27.7662H134.736V39H134.122V27.7662H129.639V27.1355H139.219ZM153.969 27.1355V27.7662H150.423V38.3693H153.969V39H146.281V38.3693H149.809V27.7662H146.281V27.1355H153.969ZM165.803 26.8798C166.69 26.8798 167.508 27.1014 168.258 27.5446C169.008 27.9764 169.599 28.5674 170.031 29.3175C170.474 30.0675 170.696 30.8858 170.696 31.7722V34.3633C170.696 35.2497 170.474 36.068 170.031 36.818C169.599 37.5681 169.008 38.1647 168.258 38.6079C167.508 39.0398 166.69 39.2557 165.803 39.2557C164.917 39.2557 164.098 39.0398 163.348 38.6079C162.598 38.1647 162.002 37.5681 161.559 36.818C161.127 36.068 160.911 35.2497 160.911 34.3633V31.7722C160.911 30.8858 161.127 30.0675 161.559 29.3175C162.002 28.5674 162.598 27.9764 163.348 27.5446C164.098 27.1014 164.917 26.8798 165.803 26.8798ZM161.541 34.3633C161.541 35.1361 161.729 35.852 162.104 36.5112C162.49 37.159 163.008 37.676 163.655 38.0624C164.314 38.4375 165.03 38.625 165.803 38.625C166.576 38.625 167.286 38.4375 167.934 38.0624C168.593 37.676 169.11 37.159 169.485 36.5112C169.872 35.852 170.065 35.1361 170.065 34.3633V31.7722C170.065 30.9994 169.872 30.2891 169.485 29.6413C169.11 28.9822 168.593 28.4651 167.934 28.0901C167.286 27.7037 166.576 27.5105 165.803 27.5105C165.03 27.5105 164.314 27.7037 163.655 28.0901C163.008 28.4651 162.49 28.9822 162.104 29.6413C161.729 30.2891 161.541 30.9994 161.541 31.7722V34.3633ZM176.853 39V27.1355H177.518L185.803 35.1815V27.1355H186.434V39H185.803V36.068L177.484 27.9537V39H176.853Z" fill="white"/>
</svg>
